<mxfile host="app.diagrams.net" agent="Mozilla/5.0 (Windows NT 10.0; Win64; x64) AppleWebKit/537.36 (KHTML, like Gecko) Chrome/129.0.0.0 Safari/537.36" version="24.7.17">
  <diagram name="Halaman-1" id="ShTQarTMO9w94NMaEK7B">
    <mxGraphModel dx="794" dy="446" grid="1" gridSize="10" guides="1" tooltips="1" connect="1" arrows="1" fold="1" page="1" pageScale="1" pageWidth="827" pageHeight="1169" math="0" shadow="0">
      <root>
        <mxCell id="0" />
        <mxCell id="1" parent="0" />
        <mxCell id="qVPJBaMH_Ry0bUPefw5o-3" style="edgeStyle=orthogonalEdgeStyle;rounded=0;orthogonalLoop=1;jettySize=auto;html=1;" edge="1" parent="1" source="qVPJBaMH_Ry0bUPefw5o-1" target="qVPJBaMH_Ry0bUPefw5o-2">
          <mxGeometry relative="1" as="geometry" />
        </mxCell>
        <mxCell id="qVPJBaMH_Ry0bUPefw5o-4" value="penulis&amp;nbsp;&lt;div&gt;mengirimkan&lt;/div&gt;&lt;div&gt;naskah&lt;/div&gt;" style="edgeLabel;html=1;align=center;verticalAlign=middle;resizable=0;points=[];" vertex="1" connectable="0" parent="qVPJBaMH_Ry0bUPefw5o-3">
          <mxGeometry x="-0.0424" y="-1" relative="1" as="geometry">
            <mxPoint as="offset" />
          </mxGeometry>
        </mxCell>
        <mxCell id="qVPJBaMH_Ry0bUPefw5o-1" value="Start" style="ellipse;whiteSpace=wrap;html=1;aspect=fixed;" vertex="1" parent="1">
          <mxGeometry x="40" y="90" width="60" height="60" as="geometry" />
        </mxCell>
        <mxCell id="qVPJBaMH_Ry0bUPefw5o-7" style="edgeStyle=orthogonalEdgeStyle;rounded=0;orthogonalLoop=1;jettySize=auto;html=1;entryX=0;entryY=0.5;entryDx=0;entryDy=0;" edge="1" parent="1" source="qVPJBaMH_Ry0bUPefw5o-2" target="qVPJBaMH_Ry0bUPefw5o-6">
          <mxGeometry relative="1" as="geometry">
            <mxPoint x="420" y="120" as="targetPoint" />
          </mxGeometry>
        </mxCell>
        <mxCell id="qVPJBaMH_Ry0bUPefw5o-2" value="Submit script" style="rounded=1;whiteSpace=wrap;html=1;" vertex="1" parent="1">
          <mxGeometry x="190" y="100" width="110" height="40" as="geometry" />
        </mxCell>
        <mxCell id="qVPJBaMH_Ry0bUPefw5o-46" style="edgeStyle=orthogonalEdgeStyle;rounded=0;orthogonalLoop=1;jettySize=auto;html=1;entryX=0;entryY=0.5;entryDx=0;entryDy=0;" edge="1" parent="1" source="qVPJBaMH_Ry0bUPefw5o-6" target="qVPJBaMH_Ry0bUPefw5o-42">
          <mxGeometry relative="1" as="geometry" />
        </mxCell>
        <mxCell id="qVPJBaMH_Ry0bUPefw5o-6" value="Review script" style="rounded=1;whiteSpace=wrap;html=1;" vertex="1" parent="1">
          <mxGeometry x="330" y="100" width="110" height="40" as="geometry" />
        </mxCell>
        <mxCell id="qVPJBaMH_Ry0bUPefw5o-23" style="edgeStyle=orthogonalEdgeStyle;rounded=0;orthogonalLoop=1;jettySize=auto;html=1;" edge="1" parent="1" source="qVPJBaMH_Ry0bUPefw5o-9" target="qVPJBaMH_Ry0bUPefw5o-22">
          <mxGeometry relative="1" as="geometry" />
        </mxCell>
        <mxCell id="qVPJBaMH_Ry0bUPefw5o-9" value="Menerbitkan buku" style="rounded=1;whiteSpace=wrap;html=1;" vertex="1" parent="1">
          <mxGeometry x="510" y="180" width="110" height="40" as="geometry" />
        </mxCell>
        <mxCell id="qVPJBaMH_Ry0bUPefw5o-52" style="edgeStyle=orthogonalEdgeStyle;rounded=0;orthogonalLoop=1;jettySize=auto;html=1;entryX=0;entryY=0.5;entryDx=0;entryDy=0;" edge="1" parent="1" source="qVPJBaMH_Ry0bUPefw5o-10" target="qVPJBaMH_Ry0bUPefw5o-51">
          <mxGeometry relative="1" as="geometry" />
        </mxCell>
        <mxCell id="qVPJBaMH_Ry0bUPefw5o-10" value="Memberi revisi" style="rounded=1;whiteSpace=wrap;html=1;" vertex="1" parent="1">
          <mxGeometry x="520" y="40" width="110" height="40" as="geometry" />
        </mxCell>
        <mxCell id="qVPJBaMH_Ry0bUPefw5o-19" value="Batal terbit" style="rounded=1;whiteSpace=wrap;html=1;" vertex="1" parent="1">
          <mxGeometry x="690" y="130" width="110" height="40" as="geometry" />
        </mxCell>
        <mxCell id="qVPJBaMH_Ry0bUPefw5o-28" style="edgeStyle=orthogonalEdgeStyle;rounded=0;orthogonalLoop=1;jettySize=auto;html=1;entryX=0.25;entryY=0;entryDx=0;entryDy=0;" edge="1" parent="1" source="qVPJBaMH_Ry0bUPefw5o-22" target="qVPJBaMH_Ry0bUPefw5o-24">
          <mxGeometry relative="1" as="geometry">
            <Array as="points">
              <mxPoint x="520" y="280" />
              <mxPoint x="520" y="240" />
              <mxPoint x="398" y="240" />
            </Array>
          </mxGeometry>
        </mxCell>
        <mxCell id="qVPJBaMH_Ry0bUPefw5o-29" value="Pelanggan melakukan&lt;div&gt;pemesanan&lt;/div&gt;" style="edgeLabel;html=1;align=center;verticalAlign=middle;resizable=0;points=[];" vertex="1" connectable="0" parent="qVPJBaMH_Ry0bUPefw5o-28">
          <mxGeometry x="0.1852" y="-1" relative="1" as="geometry">
            <mxPoint as="offset" />
          </mxGeometry>
        </mxCell>
        <mxCell id="qVPJBaMH_Ry0bUPefw5o-22" value="Add book to inventory" style="rounded=1;whiteSpace=wrap;html=1;" vertex="1" parent="1">
          <mxGeometry x="590" y="280" width="110" height="40" as="geometry" />
        </mxCell>
        <mxCell id="qVPJBaMH_Ry0bUPefw5o-31" style="edgeStyle=orthogonalEdgeStyle;rounded=0;orthogonalLoop=1;jettySize=auto;html=1;entryX=1;entryY=0.5;entryDx=0;entryDy=0;" edge="1" parent="1" source="qVPJBaMH_Ry0bUPefw5o-24" target="qVPJBaMH_Ry0bUPefw5o-30">
          <mxGeometry relative="1" as="geometry" />
        </mxCell>
        <mxCell id="qVPJBaMH_Ry0bUPefw5o-24" value="Place Order" style="rounded=1;whiteSpace=wrap;html=1;" vertex="1" parent="1">
          <mxGeometry x="370" y="270" width="110" height="40" as="geometry" />
        </mxCell>
        <mxCell id="qVPJBaMH_Ry0bUPefw5o-30" value="Memeriksa ketersediaan stok&lt;span style=&quot;color: rgba(0, 0, 0, 0); font-family: monospace; font-size: 0px; text-align: start; text-wrap: nowrap;&quot;&gt;%3CmxGraphModel%3E%3Croot%3E%3CmxCell%20id%3D%220%22%2F%3E%3CmxCell%20id%3D%221%22%20parent%3D%220%22%2F%3E%3CmxCell%20id%3D%222%22%20value%3D%22Memberi%20revisi%22%20style%3D%22rounded%3D1%3BwhiteSpace%3Dwrap%3Bhtml%3D1%3B%22%20vertex%3D%221%22%20parent%3D%221%22%3E%3CmxGeometry%20x%3D%22520%22%20y%3D%2240%22%20width%3D%22110%22%20height%3D%2240%22%20as%3D%22geometry%22%2F%3E%3C%2FmxCell%3E%3C%2Froot%3E%3C%2FmxGraphModel%3E&lt;/span&gt;&lt;span style=&quot;color: rgba(0, 0, 0, 0); font-family: monospace; font-size: 0px; text-align: start; text-wrap: nowrap;&quot;&gt;%3CmxGraphModel%3E%3Croot%3E%3CmxCell%20id%3D%220%22%2F%3E%3CmxCell%20id%3D%221%22%20parent%3D%220%22%2F%3E%3CmxCell%20id%3D%222%22%20value%3D%22Memberi%20revisi%22%20style%3D%22rounded%3D1%3BwhiteSpace%3Dwrap%3Bhtml%3D1%3B%22%20vertex%3D%221%22%20parent%3D%221%22%3E%3CmxGeometry%20x%3D%22520%22%20y%3D%2240%22%20width%3D%22110%22%20height%3D%2240%22%20as%3D%22geometry%22%2F%3E%3C%2FmxCell%3E%3C%2Froot%3E%3C%2FmxGraphModel%3E&lt;/span&gt;" style="rounded=1;whiteSpace=wrap;html=1;" vertex="1" parent="1">
          <mxGeometry x="180" y="260" width="110" height="40" as="geometry" />
        </mxCell>
        <mxCell id="qVPJBaMH_Ry0bUPefw5o-32" value="Konfirmasi ke pelanggan" style="rounded=1;whiteSpace=wrap;html=1;" vertex="1" parent="1">
          <mxGeometry x="50" y="180" width="110" height="40" as="geometry" />
        </mxCell>
        <mxCell id="qVPJBaMH_Ry0bUPefw5o-40" style="edgeStyle=orthogonalEdgeStyle;rounded=0;orthogonalLoop=1;jettySize=auto;html=1;" edge="1" parent="1" source="qVPJBaMH_Ry0bUPefw5o-35" target="qVPJBaMH_Ry0bUPefw5o-39">
          <mxGeometry relative="1" as="geometry" />
        </mxCell>
        <mxCell id="qVPJBaMH_Ry0bUPefw5o-41" value="Pelanggan menerima konfirmasi&lt;div&gt;pesanan telah selesai diproses&lt;/div&gt;" style="edgeLabel;html=1;align=center;verticalAlign=middle;resizable=0;points=[];" vertex="1" connectable="0" parent="qVPJBaMH_Ry0bUPefw5o-40">
          <mxGeometry x="0.0091" y="-2" relative="1" as="geometry">
            <mxPoint as="offset" />
          </mxGeometry>
        </mxCell>
        <mxCell id="qVPJBaMH_Ry0bUPefw5o-35" value="Process Order" style="rounded=1;whiteSpace=wrap;html=1;" vertex="1" parent="1">
          <mxGeometry x="50" y="350" width="110" height="40" as="geometry" />
        </mxCell>
        <mxCell id="qVPJBaMH_Ry0bUPefw5o-64" style="rounded=0;orthogonalLoop=1;jettySize=auto;html=1;entryX=0;entryY=0.5;entryDx=0;entryDy=0;" edge="1" parent="1" source="qVPJBaMH_Ry0bUPefw5o-39" target="qVPJBaMH_Ry0bUPefw5o-63">
          <mxGeometry relative="1" as="geometry" />
        </mxCell>
        <mxCell id="qVPJBaMH_Ry0bUPefw5o-39" value="Order confirmation" style="rounded=1;whiteSpace=wrap;html=1;" vertex="1" parent="1">
          <mxGeometry x="380" y="350" width="110" height="40" as="geometry" />
        </mxCell>
        <mxCell id="qVPJBaMH_Ry0bUPefw5o-47" style="edgeStyle=orthogonalEdgeStyle;rounded=0;orthogonalLoop=1;jettySize=auto;html=1;entryX=0;entryY=0.25;entryDx=0;entryDy=0;" edge="1" parent="1" source="qVPJBaMH_Ry0bUPefw5o-42" target="qVPJBaMH_Ry0bUPefw5o-10">
          <mxGeometry relative="1" as="geometry">
            <Array as="points">
              <mxPoint x="450" y="100" />
              <mxPoint x="450" y="50" />
            </Array>
          </mxGeometry>
        </mxCell>
        <mxCell id="qVPJBaMH_Ry0bUPefw5o-48" value="Ya" style="edgeLabel;html=1;align=center;verticalAlign=middle;resizable=0;points=[];" vertex="1" connectable="0" parent="qVPJBaMH_Ry0bUPefw5o-47">
          <mxGeometry x="0.6242" y="-1" relative="1" as="geometry">
            <mxPoint x="1" as="offset" />
          </mxGeometry>
        </mxCell>
        <mxCell id="qVPJBaMH_Ry0bUPefw5o-42" value="&lt;font style=&quot;font-size: 9px;&quot;&gt;Revisi/&lt;/font&gt;&lt;div style=&quot;font-size: 9px;&quot;&gt;&lt;font style=&quot;font-size: 9px;&quot;&gt;tidak&lt;/font&gt;&lt;/div&gt;" style="rhombus;whiteSpace=wrap;html=1;" vertex="1" parent="1">
          <mxGeometry x="547.5" y="95" width="55" height="50" as="geometry" />
        </mxCell>
        <mxCell id="qVPJBaMH_Ry0bUPefw5o-49" style="edgeStyle=orthogonalEdgeStyle;rounded=0;orthogonalLoop=1;jettySize=auto;html=1;exitX=0.5;exitY=1;exitDx=0;exitDy=0;entryX=0.606;entryY=0.033;entryDx=0;entryDy=0;entryPerimeter=0;" edge="1" parent="1" source="qVPJBaMH_Ry0bUPefw5o-42" target="qVPJBaMH_Ry0bUPefw5o-9">
          <mxGeometry relative="1" as="geometry" />
        </mxCell>
        <mxCell id="qVPJBaMH_Ry0bUPefw5o-50" value="Tidak" style="edgeLabel;html=1;align=center;verticalAlign=middle;resizable=0;points=[];" vertex="1" connectable="0" parent="qVPJBaMH_Ry0bUPefw5o-49">
          <mxGeometry x="-0.0864" y="-1" relative="1" as="geometry">
            <mxPoint as="offset" />
          </mxGeometry>
        </mxCell>
        <mxCell id="qVPJBaMH_Ry0bUPefw5o-55" style="edgeStyle=orthogonalEdgeStyle;rounded=0;orthogonalLoop=1;jettySize=auto;html=1;exitX=0;exitY=1;exitDx=0;exitDy=0;entryX=1;entryY=0.25;entryDx=0;entryDy=0;" edge="1" parent="1" source="qVPJBaMH_Ry0bUPefw5o-51" target="qVPJBaMH_Ry0bUPefw5o-9">
          <mxGeometry relative="1" as="geometry" />
        </mxCell>
        <mxCell id="qVPJBaMH_Ry0bUPefw5o-56" value="diterim" style="edgeLabel;html=1;align=center;verticalAlign=middle;resizable=0;points=[];" vertex="1" connectable="0" parent="qVPJBaMH_Ry0bUPefw5o-55">
          <mxGeometry x="0.0785" relative="1" as="geometry">
            <mxPoint as="offset" />
          </mxGeometry>
        </mxCell>
        <mxCell id="qVPJBaMH_Ry0bUPefw5o-51" value="&lt;font size=&quot;1&quot;&gt;diterima/&lt;/font&gt;&lt;div&gt;&lt;font size=&quot;1&quot;&gt;tidak&lt;/font&gt;&lt;/div&gt;" style="rhombus;whiteSpace=wrap;html=1;" vertex="1" parent="1">
          <mxGeometry x="700" y="35" width="55" height="50" as="geometry" />
        </mxCell>
        <mxCell id="qVPJBaMH_Ry0bUPefw5o-53" style="edgeStyle=orthogonalEdgeStyle;rounded=0;orthogonalLoop=1;jettySize=auto;html=1;entryX=0.339;entryY=0;entryDx=0;entryDy=0;entryPerimeter=0;" edge="1" parent="1" source="qVPJBaMH_Ry0bUPefw5o-51" target="qVPJBaMH_Ry0bUPefw5o-19">
          <mxGeometry relative="1" as="geometry" />
        </mxCell>
        <mxCell id="qVPJBaMH_Ry0bUPefw5o-54" value="naskah ditolak" style="edgeLabel;html=1;align=center;verticalAlign=middle;resizable=0;points=[];" vertex="1" connectable="0" parent="qVPJBaMH_Ry0bUPefw5o-53">
          <mxGeometry x="-0.0413" y="-1" relative="1" as="geometry">
            <mxPoint as="offset" />
          </mxGeometry>
        </mxCell>
        <mxCell id="qVPJBaMH_Ry0bUPefw5o-57" value="&lt;font size=&quot;1&quot;&gt;tersedia/&lt;/font&gt;&lt;div&gt;&lt;font size=&quot;1&quot;&gt;tidak&lt;/font&gt;&lt;/div&gt;" style="rhombus;whiteSpace=wrap;html=1;" vertex="1" parent="1">
          <mxGeometry x="70" y="265" width="55" height="50" as="geometry" />
        </mxCell>
        <mxCell id="qVPJBaMH_Ry0bUPefw5o-58" style="edgeStyle=orthogonalEdgeStyle;rounded=0;orthogonalLoop=1;jettySize=auto;html=1;entryX=0.418;entryY=1.1;entryDx=0;entryDy=0;entryPerimeter=0;" edge="1" parent="1" source="qVPJBaMH_Ry0bUPefw5o-57" target="qVPJBaMH_Ry0bUPefw5o-32">
          <mxGeometry relative="1" as="geometry" />
        </mxCell>
        <mxCell id="qVPJBaMH_Ry0bUPefw5o-59" value="tidak" style="edgeLabel;html=1;align=center;verticalAlign=middle;resizable=0;points=[];" vertex="1" connectable="0" parent="qVPJBaMH_Ry0bUPefw5o-58">
          <mxGeometry x="-0.1179" y="2" relative="1" as="geometry">
            <mxPoint x="1" as="offset" />
          </mxGeometry>
        </mxCell>
        <mxCell id="qVPJBaMH_Ry0bUPefw5o-60" style="edgeStyle=orthogonalEdgeStyle;rounded=0;orthogonalLoop=1;jettySize=auto;html=1;entryX=0.432;entryY=0.25;entryDx=0;entryDy=0;entryPerimeter=0;" edge="1" parent="1" source="qVPJBaMH_Ry0bUPefw5o-57" target="qVPJBaMH_Ry0bUPefw5o-35">
          <mxGeometry relative="1" as="geometry" />
        </mxCell>
        <mxCell id="qVPJBaMH_Ry0bUPefw5o-61" value="Ya" style="edgeLabel;html=1;align=center;verticalAlign=middle;resizable=0;points=[];" vertex="1" connectable="0" parent="qVPJBaMH_Ry0bUPefw5o-60">
          <mxGeometry x="-0.1515" y="1" relative="1" as="geometry">
            <mxPoint x="1" as="offset" />
          </mxGeometry>
        </mxCell>
        <mxCell id="qVPJBaMH_Ry0bUPefw5o-67" style="edgeStyle=orthogonalEdgeStyle;rounded=0;orthogonalLoop=1;jettySize=auto;html=1;" edge="1" parent="1" source="qVPJBaMH_Ry0bUPefw5o-63" target="qVPJBaMH_Ry0bUPefw5o-66">
          <mxGeometry relative="1" as="geometry" />
        </mxCell>
        <mxCell id="qVPJBaMH_Ry0bUPefw5o-63" value="Mencatat transaksi&lt;div&gt;dan membuat laporan keuangan&lt;/div&gt;" style="rounded=1;whiteSpace=wrap;html=1;" vertex="1" parent="1">
          <mxGeometry x="580" y="345" width="110" height="50" as="geometry" />
        </mxCell>
        <mxCell id="qVPJBaMH_Ry0bUPefw5o-66" value="Selesai" style="ellipse;whiteSpace=wrap;html=1;" vertex="1" parent="1">
          <mxGeometry x="605" y="450" width="60" height="60" as="geometry" />
        </mxCell>
      </root>
    </mxGraphModel>
  </diagram>
</mxfile>
